<svg width="23px" height="24px" viewBox="0 0 23 24" version="1.1" xmlns="http://www.w3.org/2000/svg" xmlns:xlink="http://www.w3.org/1999/xlink">
  <g stroke="none" stroke-width="1" fill="none" fill-rule="evenodd">
    <g fill="#111111">
      <circle cx="6" cy="22" r="1"></circle>
      <circle cx="20" cy="22" r="1"></circle>
      <path d="M6,24 C4.8954305,24 4,23.1045695 4,22 C4,20.8954305 4.8954305,20 6,20 C7.1045695,20 8,20.8954305 8,22 C8,23.1045695 7.1045695,24 6,24 Z"></path>
      <path d="M20,24 C18.8954305,24 18,23.1045695 18,22 C18,20.8954305 18.8954305,20 20,20 C21.1045695,20 22,20.8954305 22,22 C22,23.1045695 21.1045695,24 20,24 Z"></path>
      <path d="M3,2 L0,2 L0,0 L5,0 L5,15 C5,15.5522847 5.44771525,16 6,16 L23,16 L23,18 L6,18 C4.34314575,18 3,16.6568542 3,15 L3,2 Z"></path>
      <polygon points="19.7192236 6 4 6 4 4 22.2807764 4 19.7807764 14 4 14 4 12 18.2192236 12"></polygon>
    </g>
  </g>
</svg>